<svg width="192" height="121" fill="none" xmlns="http://www.w3.org/2000/svg"><path d="M7.17 45.73C3.495 29.47 15.86 14 32.53 14H166c14.359 0 26 11.64 26 26v44.876c0 14.408-11.716 26.068-26.124 26l-132.235-.63c-16.087-.077-28.245-14.597-25.493-30.447l2.032-11.704a26 26 0 0 0-.256-10.178L7.17 45.73Z" fill="#72E3AD"/><path d="M54.183 96V29.184h15.072V96H54.183ZM32.967 41.376V28.224H90.47v13.152H32.967Z" fill="#fff"/><path d="M130.777 96V29.184h15.072V96h-15.072Zm-21.216-54.624V28.224h57.504v13.152h-57.504ZM92 28h15v38H92z" fill="#171717"/><path fill="#fff" d="M92 63h15v38H92z"/></svg>